<?xml version="1.0" encoding="utf-8"?>
<!-- Generator: Adobe Illustrator 23.0.1, SVG Export Plug-In . SVG Version: 6.00 Build 0)  -->
<svg version="1.1" id="Layer_1" xmlns="http://www.w3.org/2000/svg" xmlns:xlink="http://www.w3.org/1999/xlink" x="0px" y="0px"
	 viewBox="0 0 300 300" style="enable-background:new 0 0 300 300;" xml:space="preserve">
<path d="M219.86,61.32H81.22c-31.23,0-56.78,25.55-56.78,56.78c0,31.23,25.55,56.78,56.78,56.78h8.69l25.23,64.16l27.09-64.16h77.63
	c31.23,0,56.78-25.55,56.78-56.78C276.64,86.87,251.09,61.32,219.86,61.32z M245.67,118.1c0,17.44-14.27,31.71-31.71,31.71h-85.15
	l-12.93,35.4l-12.23-35.4H87.12c-17.44,0-31.71-14.27-31.71-31.71v0c0-17.44,14.27-31.71,31.71-31.71h126.84
	C231.4,86.39,245.67,100.66,245.67,118.1L245.67,118.1z"/>
</svg>
