<svg xmlns="http://www.w3.org/2000/svg" viewBox="0 0 379.3 92.19"><title>logo-text-only</title><g id="Layer_2" data-name="Layer 2"><g id="Layer_1-2" data-name="Layer 1"><g id="Layer_3" data-name="Layer 3"><path d="M0,8.18H15.64c10.07,0,17.66,1.3,22.52,3.79a30.24,30.24,0,0,1,12.2,12.2C53.56,29.86,55.1,36.38,55.1,44a40.1,40.1,0,0,1-2.73,14.81A30.81,30.81,0,0,1,45,69.91a26.17,26.17,0,0,1-10.19,6.16c-3.68,1.19-10,1.66-19,1.66H0ZM13.15,21v44h6.16q9.07,0,13.16-2.13a16.1,16.1,0,0,0,6.75-7,25.29,25.29,0,0,0,2.61-12.09c0-7.34-2-13.15-6.16-17.18C32,22.87,26,21.09,17.77,21.09H13.15Z" style="fill:currentColor"/><path d="M53.32,19.2H66.48L79.87,51.54,94.68,19.2H108L75.72,89.46H62.33L72.87,66.83Z" style="fill:currentColor"/><path d="M108.07,19.2H121v5.33a30.24,30.24,0,0,1,7.94-5.1A19.93,19.93,0,0,1,136.27,18a17.8,17.8,0,0,1,13,5.33c3,3.08,4.51,7.47,4.51,13.39v34H141V48.23c0-6.16-.24-10.19-.83-12.21a9.06,9.06,0,0,0-2.85-4.62,8.1,8.1,0,0,0-5.09-1.54,9.45,9.45,0,0,0-6.75,2.61,13.72,13.72,0,0,0-3.91,7.23,59.34,59.34,0,0,0-.6,10.42V70.74H108.07Z" style="fill:currentColor"/><path d="M196.46,19.2h12.92V70.62H196.46V65.17a26.34,26.34,0,0,1-7.58,5.22,21.21,21.21,0,0,1-8.29,1.54,23.2,23.2,0,0,1-17.3-7.71C158.43,59,156.06,52.61,156.06,45c0-7.94,2.37-14.46,7-19.55a22.43,22.43,0,0,1,17.06-7.59,21,21,0,0,1,8.65,1.78,24.2,24.2,0,0,1,7.47,5.21V19.2ZM182.84,29.86a12.91,12.91,0,0,0-10,4.27A15.4,15.4,0,0,0,169,45a15.45,15.45,0,0,0,4,11,13.9,13.9,0,0,0,20,0c2.72-2.85,4-6.52,4-11.14A15,15,0,0,0,193,34,13.32,13.32,0,0,0,182.84,29.86Z" style="fill:currentColor"/><path d="M212.58,19.2h12.91v5.92a22.91,22.91,0,0,1,7.35-5.45,22.16,22.16,0,0,1,8.89-1.78,17.07,17.07,0,0,1,8.77,2.37,17.73,17.73,0,0,1,6.28,6.88,19.88,19.88,0,0,1,7.58-6.88,21.15,21.15,0,0,1,9.84-2.37,17.77,17.77,0,0,1,9.71,2.61,15.52,15.52,0,0,1,6,6.64c1.18,2.72,1.77,7.22,1.77,13.39V70.74h-13V44.67c0-5.8-.71-9.83-2.13-11.85a7.6,7.6,0,0,0-6.52-3.08,9.55,9.55,0,0,0-5.93,1.9,10.94,10.94,0,0,0-3.91,5.21c-.83,2.25-1.3,5.81-1.3,10.67V70.74h-13V45.86q0-6.93-1.07-10a9.42,9.42,0,0,0-3.08-4.62,7.62,7.62,0,0,0-5-1.54,9.17,9.17,0,0,0-5.8,1.9A11.23,11.23,0,0,0,227,37c-.82,2.25-1.3,5.92-1.3,10.9V70.74H212.82V19.2Z" style="fill:currentColor"/><path d="M295.05,18.49H308.2V70.74H295.05Z" style="fill:currentColor"/><path d="M299.43,0H319.1l19.32,29.62L357.85,0h19.67L348.25,44.67,379.3,92.19H359.63L338.54,59.72,317.33,92.07H297.42l31.16-47.52Z" style="fill:currentColor"/></g></g></g></svg>