<svg height="64" viewBox="0 0 64 63.999999" width="64" xmlns="http://www.w3.org/2000/svg"><path d="m-47.804308 5.0963402a2.23 2.23 0 0 0 .43-.18l5-3.09a3.1 3.1 0 0 0 .25-.21v-6.63h5.33v3.42l5.76-3.49 16.78 10.28-2.76 4.52-2.87-1.75c-.05 0-.08 0-.09 0a.11.11 0 0 0 0 .06v13.4099998c-.56.14-20.1.19-22 .07s0 0 0-.06 0-.13 0-.2q0-6.57 0-13.1599998s0 0-.06-.12l-3.02 1.74-1.13-1.79c-.48-.78-1-1.56-1.45-2.34a1 1 0 0 0 -.17-.21z" fill="#000" transform="matrix(1.9076006 0 0 1.9076006 91.191527 16.271589)"/></svg>