<svg fill="#fcf2fb" enable-background="new 0 0 912.6 532.5" viewBox="0 0 912.6 532.5" xmlns="http://www.w3.org/2000/svg"><path d="m409.9 192.3c-7.8-102.9-95.4-183.5-201.1-179.8-102.9 3.7-185.9 88.5-187.5 191.5-1.7 108.9 86.1 197.6 194.6 197.6h.4c26.5-.1 46.7 23.5 41.9 49.6-3.6 19.9-11 42.7-23 68.9 158.7-83.8 174.7-272.6 174.7-327.8z"/><path d="m891.3 192.3c-7.7-102.9-95.3-183.5-201-179.8-102.9 3.7-185.9 88.5-187.5 191.5-1.7 108.9 86.1 197.6 194.6 197.6h.4c26.5-.1 46.7 23.5 41.9 49.6-3.6 19.9-11 42.7-23 68.9 158.7-83.8 174.6-272.6 174.6-327.8z"/></svg>